<?xml version="1.0" encoding="UTF-8"?>
<svg version="1.1" id="Layer_1" xmlns="http://www.w3.org/2000/svg" xmlns:xlink="http://www.w3.org/1999/xlink" x="0px" y="0px" viewBox="-1 169 840 549" enable-background="new 0 0 1024 816" xml:space="preserve" fill="currentColor">

<path fill="currentColor" opacity="1.000000" stroke="none" d="
M479.521667,280.551849 
	C497.439606,258.818909 517.701294,240.066193 540.590698,224.357788 
	C551.279541,217.022308 563.489624,212.310181 575.668457,207.706390 
	C597.415771,199.485535 620.103638,196.727875 643.042297,194.939072 
	C653.982544,194.085938 664.945251,192.189972 675.854309,194.063065 
	C685.802856,195.771225 695.639465,198.151474 705.584778,199.990463 
	C734.731079,205.379913 760.631775,218.323135 784.654480,235.208466 
	C795.353699,242.728851 801.404053,253.703552 806.191223,265.735901 
	C816.696899,292.142059 816.661438,319.154175 812.604309,346.680237 
	C809.421204,368.276031 801.191528,387.412842 789.690613,406.059998 
	C776.879700,426.831085 761.479797,445.163910 744.895569,462.667725 
	C738.655579,469.253754 731.129272,474.658051 724.731995,481.205841 
	C718.935059,487.139038 713.506775,493.480408 706.174377,497.712830 
	C696.241272,503.446533 686.811035,510.307983 676.365784,514.845703 
	C653.048462,524.975281 629.632141,525.752258 607.197083,511.634003 
	C602.546204,508.707214 597.824158,505.854034 593.419861,502.583099 
	C583.646790,495.324829 576.760437,486.366150 577.363037,473.319092 
	C577.415405,472.184723 576.759460,470.947266 578.013733,470.184692 
	C579.348511,469.373230 580.541687,469.952728 581.664185,470.843750 
	C584.516602,473.108063 587.000610,475.745636 589.978394,477.940002 
	C598.960205,484.558838 609.093506,485.661224 619.761536,485.988342 
	C642.750732,486.693298 661.703186,477.594879 678.722961,463.090393 
	C682.114319,460.200165 686.132385,458.056000 689.755432,455.421997 
	C691.342773,454.267975 692.630371,452.959839 692.489746,450.491760 
	C692.029846,442.418823 695.307312,438.383484 703.026428,436.963104 
	C710.378357,435.610352 714.636963,430.416962 713.461060,423.282959 
	C712.670776,418.488586 715.037964,415.567932 718.632690,414.238007 
	C722.708557,412.730072 723.991943,409.873108 724.387817,406.356079 
	C724.765991,402.996063 725.767395,399.930481 726.888733,396.790314 
	C728.272156,392.916412 729.530823,389.750366 734.811218,390.684540 
	C737.732117,391.201294 739.770447,389.141449 740.326355,386.061768 
	C740.799500,383.440460 741.911682,380.734344 741.597961,378.207703 
	C740.560730,369.853973 745.406677,363.175171 747.459045,355.726166 
	C748.456055,352.107574 747.466614,348.705322 746.907410,345.361389 
	C745.690430,338.084656 748.274170,329.947021 742.152527,323.654968 
	C741.296753,322.775360 741.314148,320.782471 741.375793,319.323914 
	C741.557617,315.020782 740.748169,311.299713 737.645264,307.922699 
	C735.547913,305.640137 734.348450,302.523865 735.115051,299.103363 
	C735.465332,297.540283 735.292175,295.704559 733.677856,295.224487 
	C727.482422,293.382202 724.995544,287.743225 721.233459,283.447052 
	C716.531799,278.077911 715.615234,278.094910 709.162170,281.087891 
	C701.686218,284.555267 694.167603,288.817444 685.444153,284.208069 
	C682.359802,282.578369 679.990784,280.717865 678.651855,277.351624 
	C676.400940,271.692657 673.951294,270.972931 668.155396,272.192078 
	C663.067261,273.262299 659.235474,275.134247 655.112488,278.853027 
	C650.309387,283.185272 642.566284,283.009155 635.962036,281.761139 
	C631.412476,280.901337 626.126343,281.032715 622.894653,276.506897 
	C622.645142,276.157501 622.046997,275.949951 621.580505,275.880341 
	C618.891174,275.479004 609.013916,282.536682 608.291016,285.333527 
	C605.301270,296.901062 593.214111,304.692963 581.391052,302.017853 
	C576.812134,300.981812 574.138428,301.827545 572.038574,305.921997 
	C570.602295,308.722626 568.656860,311.246094 566.395020,313.516113 
	C564.339417,315.579102 563.418091,318.026978 563.360840,321.128357 
	C563.037842,338.634491 551.587830,349.003998 537.759155,351.710693 
	C536.785706,351.901276 535.779724,352.067566 534.795227,352.037659 
	C526.766602,351.793701 526.854004,351.813110 523.916809,359.216888 
	C521.898926,364.303223 519.594788,368.974030 523.433044,374.533356 
	C530.777283,385.170898 526.811584,395.659088 521.556335,405.595673 
	C517.062866,414.091858 511.166290,421.474518 501.436401,424.667053 
	C499.570831,425.279175 498.515198,426.855621 498.236176,428.813782 
	C497.651184,432.919708 497.095642,437.030426 496.587555,441.146515 
	C496.376190,442.858887 497.454681,444.116669 498.714874,444.863220 
	C504.678619,448.396393 505.722198,454.284210 506.186523,460.354370 
	C507.497467,477.493317 502.078674,492.837982 489.565765,504.003357 
	C482.141846,510.627777 479.445129,517.436951 478.937805,526.481689 
	C478.813873,528.691284 476.760071,530.798523 475.573273,532.941528 
	C472.096497,539.219666 472.166718,545.225891 476.549927,551.156677 
	C480.456177,556.442139 480.883636,562.287048 479.593964,568.720276 
	C477.271515,580.305054 471.756989,590.290527 464.853882,599.531555 
	C460.921295,604.796021 455.088562,608.180908 449.127289,610.717590 
	C445.062378,612.447327 440.923218,610.127991 437.340790,608.109070 
	C434.188110,606.332336 432.165009,606.744629 429.426758,609.090698 
	C420.574951,616.674805 412.263916,624.831482 403.620300,632.627319 
	C400.136627,635.769226 399.409760,638.558594 400.919678,643.020081 
	C405.604034,656.861572 402.907349,665.808899 393.369354,674.650696 
	C378.553955,688.384705 360.641418,694.588806 341.052429,694.509521 
	C332.326965,694.474304 324.267975,688.993469 319.683319,680.651489 
	C318.072449,677.720398 316.106537,676.846619 313.254791,677.428894 
	C305.480103,679.016296 297.638580,678.521790 289.872101,677.891663 
	C285.576111,677.543091 283.236237,680.224304 280.160583,681.994690 
	C271.357849,687.061584 261.598938,688.245117 251.733658,688.026917 
	C241.095856,687.791809 230.430008,687.263062 219.856979,686.117981 
	C210.082565,685.059448 202.312897,679.449097 195.333115,672.888123 
	C192.681992,670.395996 190.334457,667.528503 188.141754,664.611694 
	C183.081741,657.880676 179.335663,650.884155 179.610565,641.811035 
	C179.887604,632.666809 178.520096,623.531738 170.862701,616.808228 
	C168.502762,614.736145 166.738678,611.998291 164.457428,609.821350 
	C158.024612,603.682678 153.126251,596.369934 148.324249,588.995178 
	C147.070587,587.069885 145.637726,586.455139 143.450607,586.265015 
	C132.084549,585.276978 123.209816,581.098938 117.311890,570.152466 
	C108.772461,554.303406 105.020073,537.763794 105.789444,519.985535 
	C105.994728,515.241821 107.012375,510.902802 110.523842,507.237183 
	C114.434776,503.154510 116.455383,498.325745 116.089989,492.306458 
	C115.678711,485.531464 116.484589,478.709290 114.873131,471.962952 
	C114.156502,468.962799 112.726997,466.630127 110.117874,465.289398 
	C102.923080,461.592194 97.400688,455.638458 90.763474,451.189087 
	C88.901100,449.940613 87.112366,448.016693 86.218590,445.992554 
	C83.264297,439.301880 79.568123,432.956268 77.153152,426.007477 
	C75.710350,421.855988 75.401917,417.947113 77.429222,413.939606 
	C78.099876,412.613953 78.868233,411.135773 78.886475,409.718231 
	C78.952393,404.595215 82.487335,402.615173 86.360771,400.775208 
	C87.920029,400.034515 89.880699,399.913208 91.325058,397.735870 
	C86.118324,397.179108 81.636414,395.459656 76.983101,394.545868 
	C66.240173,392.436157 60.467770,384.640259 56.982147,375.578583 
	C54.958603,370.317871 52.222122,364.026794 56.341347,357.955353 
	C57.469418,356.292633 56.178440,354.732941 54.714970,353.742096 
	C44.025467,346.504669 39.219788,335.404266 35.019516,323.894623 
	C34.734768,323.114349 34.599934,321.982330 34.026676,321.650208 
	C28.184612,318.265015 28.392019,311.053436 24.349821,306.565582 
	C23.395763,305.506348 23.147835,304.355835 23.345943,302.897125 
	C24.717443,292.798523 27.504608,283.203308 32.516750,274.242035 
	C40.796963,259.437744 48.283718,244.160034 57.815922,230.102676 
	C63.102512,222.306427 70.681046,216.672577 78.460419,211.463821 
	C80.914551,209.820648 83.273972,208.385544 85.318077,205.975510 
	C87.546539,203.348145 91.320816,204.565613 94.499847,205.706909 
	C104.207382,209.191925 113.474327,213.745895 122.558670,218.484924 
	C133.440796,224.161804 143.893600,230.700165 152.052948,240.303833 
	C163.160309,253.377396 174.258118,266.407196 182.929596,281.333527 
	C192.792358,298.310364 202.326447,315.423004 210.365479,333.376282 
	C219.755264,354.346161 227.819672,375.742920 233.307556,398.072418 
	C237.429504,414.844208 238.972122,432.091736 242.546783,448.948517 
	C244.526810,458.285645 243.955856,467.892822 246.270401,477.096558 
	C248.742996,486.928680 250.253204,497.057983 254.170059,506.469879 
	C260.029724,520.550293 269.268005,529.974060 285.651733,531.869934 
	C320.110046,535.857300 346.679932,523.057739 366.522736,495.473633 
	C379.713043,477.137390 389.373779,456.974579 396.989136,435.616577 
	C404.920868,413.371399 415.302704,392.070312 425.188049,370.612885 
	C434.376312,350.668579 443.232422,330.529083 455.271149,312.052429 
	C462.456604,301.024384 470.723267,290.802032 479.521667,280.551849 
M525.194214,242.693024 
	C511.126099,255.677536 496.930542,268.517578 484.880859,283.517029 
	C474.774445,296.097534 464.140076,308.203064 455.806183,322.184662 
	C446.909241,337.110931 439.774292,352.852905 432.472717,368.539093 
	C421.512756,392.084564 410.490814,415.632477 401.681458,440.075745 
	C393.545807,462.649719 383.280914,483.953888 368.445679,502.917480 
	C360.641693,512.893127 352.766571,522.711304 340.530487,527.793518 
	C334.049469,530.485352 327.180634,531.933838 320.685822,534.464966 
	C309.382080,538.870239 298.361450,540.890808 285.820923,538.594177 
	C269.147919,535.540710 257.499542,527.575806 251.373367,512.069641 
	C246.483337,499.692322 244.403122,486.490448 241.841583,473.477844 
	C241.299744,470.725281 239.429245,468.429382 239.803299,465.345886 
	C240.405319,460.383270 239.736649,455.408844 239.148880,450.452545 
	C238.400467,444.141571 235.268509,438.223511 234.972641,432.045471 
	C234.405762,420.208099 232.027969,408.685333 229.318100,397.353333 
	C222.134827,367.314819 209.013885,339.393677 195.518585,311.852325 
	C188.252899,297.024414 179.543076,282.728485 169.525040,269.335236 
	C155.315414,250.338165 138.540497,234.446030 117.744400,222.839432 
	C110.275040,218.670670 101.978935,216.580978 94.386864,212.780624 
	C92.519455,211.845856 90.422646,211.860138 88.525772,212.592728 
	C83.213959,214.644211 78.237846,217.411453 73.929451,221.116745 
	C62.872879,230.625549 55.825733,243.096085 48.971882,255.669449 
	C47.695602,258.010773 47.591274,259.939148 50.781895,261.141937 
	C68.063782,267.656769 83.735855,277.213287 98.107124,288.560852 
	C106.826416,295.445587 116.776878,300.696655 124.553238,308.828247 
	C128.853348,313.324799 131.206970,319.251587 135.626190,323.536621 
	C142.718109,330.413208 146.324890,339.137787 149.180084,348.208801 
	C153.421570,361.683960 157.249832,375.288818 161.304535,388.823364 
	C162.495148,392.797607 162.765152,396.833771 160.988647,400.550781 
	C159.567459,403.524384 159.657242,406.287842 160.447510,409.233307 
	C161.826523,414.373199 162.938736,419.607849 164.679077,424.623627 
	C172.478745,447.102966 178.236526,470.202484 185.045258,492.970306 
	C191.140854,513.353516 200.614655,531.596130 211.462311,549.607483 
	C218.210831,560.812744 229.321625,567.927612 235.928497,579.336304 
	C240.339722,586.953552 249.164551,591.633423 257.633453,594.688782 
	C277.712799,601.932861 298.279480,602.424377 318.937622,596.963623 
	C331.018921,593.770142 343.361847,590.878235 353.818420,583.787964 
	C367.393372,574.583252 377.284332,561.713379 385.889679,547.959839 
	C399.247131,526.611267 408.131012,502.964417 419.792999,480.710480 
	C430.891998,459.530945 439.205780,436.905457 449.091675,415.073059 
	C460.604675,389.647369 468.219421,362.460754 483.547729,338.757751 
	C491.226044,326.884308 498.239105,314.524475 506.621704,303.173859 
	C527.037903,275.528900 555.023132,257.170013 585.524536,242.785233 
	C610.603149,230.957870 637.152222,223.130066 664.911438,220.328156 
	C679.216125,218.884293 692.647766,223.005234 705.501709,228.641846 
	C715.558167,233.051773 724.466125,239.468536 733.312134,246.075409 
	C748.276855,257.252289 758.606934,271.917755 764.591431,288.981903 
	C771.922241,309.885223 773.080444,331.821259 769.248840,353.800049 
	C765.641479,374.492828 762.042053,395.171112 748.995056,412.684174 
	C744.715271,418.429047 740.344543,424.070923 735.806152,429.611816 
	C729.175171,437.707672 724.522766,447.236633 717.440613,455.061401 
	C712.976868,459.993164 707.188416,464.003174 703.672180,469.281921 
	C699.478271,475.578064 694.120300,479.172272 687.849548,482.336548 
	C678.070435,487.271149 668.361145,492.344238 658.592163,497.299286 
	C650.517273,501.395020 641.996277,504.948334 632.970154,504.796906 
	C623.045898,504.630402 613.129639,502.862213 603.638611,499.461670 
	C602.546143,499.070282 601.271301,498.094238 599.676025,499.466644 
	C602.002319,502.313538 605.622314,503.032990 608.369934,505.027069 
	C623.735779,516.178833 640.854797,518.750244 659.170288,514.999451 
	C667.590149,513.275208 675.093628,509.433014 682.581970,505.319641 
	C694.719604,498.652435 706.860474,492.142120 716.769958,482.162537 
	C721.681458,477.216309 727.101746,472.777679 732.250977,468.064728 
	C749.970764,451.846008 767.176025,435.203674 779.604370,414.280792 
	C782.310364,409.725281 784.918884,405.085785 788.055054,400.738159 
	C794.913208,391.230835 800.528503,380.855133 803.439331,369.518402 
	C808.039001,351.603668 809.637878,333.284668 810.466919,314.735718 
	C811.448853,292.765686 804.141541,273.395874 795.691345,254.026596 
	C792.362915,246.397156 785.634644,242.310913 779.163269,237.877487 
	C766.231323,229.018112 752.842651,220.963242 738.313049,215.014938 
	C725.002136,209.565536 711.047058,206.525742 696.878723,204.101547 
	C684.767822,202.029404 672.918335,198.252487 660.410095,199.337433 
	C647.333862,200.471649 634.231628,201.388962 621.196045,202.883636 
	C610.976135,204.055435 600.608765,204.843323 590.813171,208.317749 
	C567.543274,216.571396 544.847290,225.982056 525.194214,242.693024 
M384.181915,617.861938 
	C384.164246,618.524902 384.202271,619.195007 384.118317,619.849487 
	C383.877686,621.724854 382.192169,623.831787 384.313904,625.380188 
	C386.220154,626.771423 388.675049,626.302551 390.528625,625.264282 
	C394.986694,622.766907 399.672882,620.512024 403.347900,616.862183 
	C405.437012,614.787415 408.302521,613.099365 408.886780,609.963318 
	C410.284241,602.462463 414.494720,596.621521 419.159729,590.876038 
	C422.276550,587.037231 421.752502,578.211670 418.065643,576.835510 
	C412.252594,574.665771 409.081177,570.262024 405.764496,565.699524 
	C403.421539,562.476501 401.318481,562.811218 399.253357,566.049133 
	C396.937073,569.680725 393.643097,572.177856 389.608795,573.623169 
	C386.066589,574.892273 383.903870,577.315796 382.449005,580.759033 
	C380.555847,585.239563 377.804962,589.262451 373.632263,591.914795 
	C366.472931,596.465515 366.510193,601.042664 373.865906,605.794983 
	C378.248138,608.626221 382.141541,611.957214 384.181915,617.861938 
M211.958359,604.366394 
	C214.404572,599.910583 216.269302,595.055542 215.486633,590.083740 
	C214.652435,584.784607 214.888657,579.594666 216.485840,574.793396 
	C219.151413,566.780396 215.563934,561.424438 210.483353,556.178101 
	C207.923416,553.534668 205.323151,553.448975 203.351959,556.307678 
	C200.374100,560.626282 196.039536,562.938599 191.776093,565.533569 
	C183.879089,570.340210 182.282059,577.072266 186.288452,585.574463 
	C190.896317,595.353027 193.994781,605.466431 190.733261,616.432739 
	C190.290283,617.922180 190.370071,619.394531 190.865891,620.852478 
	C193.139847,627.539062 197.192154,632.931458 203.015823,636.872681 
	C205.504807,638.557129 208.352615,640.111694 211.131073,637.218750 
	C213.874298,634.362488 212.942688,631.115173 211.085831,628.543030 
	C205.253296,620.463440 204.823563,612.713318 211.958359,604.366394 
M330.173828,648.783569 
	C332.349579,646.146667 335.477264,644.340515 337.428192,640.690918 
	C326.403534,639.183777 328.153015,630.935730 327.929749,623.731262 
	C327.878296,622.070862 327.878448,620.399841 328.002411,618.744873 
	C328.260437,615.300171 326.666016,613.580933 323.589233,611.890381 
	C315.504120,607.448059 307.291870,609.357788 299.308197,611.051758 
	C289.456451,613.142212 285.936584,621.246826 284.194244,630.125427 
	C283.405182,634.146484 286.441223,638.467834 290.578674,639.691345 
	C299.491943,642.327026 307.388184,647.402893 316.394623,649.967957 
	C321.221313,651.342651 325.310516,652.204651 330.173828,648.783569 
M368.874847,683.358459 
	C371.886566,681.954590 374.992188,680.720154 377.891541,679.113525 
	C385.135345,675.099670 391.336548,669.837891 395.295746,662.456543 
	C398.562866,656.365295 397.049255,649.568542 392.234619,647.664673 
	C387.410248,645.756836 382.392395,644.611877 377.122040,645.223999 
	C375.966400,645.358276 374.639526,645.230164 373.904236,646.266418 
	C370.633301,650.876282 365.526917,651.395813 360.648193,652.015808 
	C348.402069,653.571777 338.498871,659.618103 330.032501,668.066406 
	C324.791290,673.296448 325.353546,675.052917 331.691864,678.909424 
	C332.345856,679.307312 332.530304,679.866455 332.336700,680.582031 
	C330.338531,682.393616 327.903625,679.405945 325.821564,681.025940 
	C327.837830,684.611633 327.876465,684.526184 331.022827,685.948792 
	C343.820801,691.734802 356.045044,688.465393 368.874847,683.358459 
M144.052109,578.458191 
	C149.382294,579.324707 148.722427,575.509888 148.576782,572.424072 
	C148.054291,561.353149 144.458740,550.942139 141.646744,540.343933 
	C138.537659,528.625977 131.012894,520.156616 122.063911,512.773804 
	C116.123856,507.873322 113.099632,509.070618 111.509674,516.684692 
	C107.306824,536.811584 113.154961,554.882446 123.824608,571.603821 
	C128.210541,578.477356 135.792679,580.463501 144.052109,578.458191 
M239.499100,645.963623 
	C242.082520,647.103821 244.640869,648.305420 247.254288,649.372131 
	C253.950424,652.105225 257.486664,651.117737 261.744537,645.336426 
	C262.766266,643.949219 263.947327,642.721130 265.612793,642.353333 
	C270.896729,641.186279 270.544830,637.345886 269.209229,633.827209 
	C267.091492,628.248108 263.448547,623.753052 257.575012,621.553894 
	C256.508423,621.154541 255.056534,621.027527 254.458298,620.252869 
	C249.377090,613.673401 241.614120,614.114746 234.661819,612.638977 
	C227.645340,611.149658 220.581024,609.585876 214.730713,616.250183 
	C212.895920,618.340210 211.672485,619.626709 213.653564,621.985840 
	C216.211334,625.031860 218.863815,627.999695 221.374680,631.083374 
	C226.254425,637.076233 231.868668,642.166260 239.499100,645.963623 
M134.771896,414.548889 
	C136.647827,417.283569 138.378571,420.133545 140.435806,422.724243 
	C143.109100,426.090729 142.323837,429.276123 140.239670,432.362518 
	C135.912445,438.770538 130.853088,439.946075 124.023026,436.346375 
	C123.049675,435.833435 122.217430,434.802795 120.705635,435.399872 
	C120.954979,438.274750 122.432945,440.635193 124.017509,442.922333 
	C127.834633,448.431854 132.101913,449.048615 137.556946,445.136414 
	C141.024460,442.649536 143.618790,439.498383 145.554840,435.749298 
	C146.675964,433.578339 146.692307,431.411560 146.104675,429.001007 
	C144.220047,421.269775 140.087799,414.807465 135.345459,408.595856 
	C133.107346,405.664307 130.059586,404.020508 126.848366,402.713959 
	C122.627876,400.996826 117.751205,402.976166 116.531769,407.003967 
	C114.246902,414.550842 113.425049,422.094025 118.871239,429.633728 
	C118.871239,426.049438 118.768654,423.079559 118.892197,420.119110 
	C119.165199,413.576813 123.079185,410.703461 129.509842,412.325684 
	C131.108139,412.728882 132.615143,413.494019 134.771896,414.548889 
M156.183105,552.552002 
	C159.055130,553.402161 161.971527,554.127869 164.788422,555.132568 
	C168.663208,556.514587 170.872528,555.114868 172.852936,551.644409 
	C175.860092,546.374878 175.038849,540.904724 174.705582,535.381653 
	C174.044159,524.420959 169.639557,515.005005 161.889893,507.479980 
	C156.721634,502.461426 148.282028,505.371765 146.635620,512.265930 
	C145.584610,516.666931 146.839340,521.216614 145.652573,525.666809 
	C147.705597,523.763306 147.519043,521.339172 148.148132,519.159180 
	C149.575226,514.213623 157.065460,511.378510 159.999466,514.790710 
	C165.573563,521.273193 170.222244,528.251160 171.126938,537.138184 
	C171.665268,542.426270 168.512207,548.431030 164.271179,549.514099 
	C156.704666,551.446350 153.245239,549.708679 150.783371,542.531006 
	C149.281113,538.151184 146.760361,534.186096 145.893982,529.560364 
	C145.859375,538.288574 149.043625,545.574402 156.183105,552.552002 
M429.245514,537.686279 
	C422.359222,541.054199 419.274994,547.674622 415.682739,553.783142 
	C410.922577,561.877625 415.492279,569.187256 424.848419,569.891235 
	C432.865814,570.494568 444.596741,557.694092 445.676147,548.672974 
	C446.689667,540.202515 446.223755,539.510315 440.055176,535.766724 
	C435.981537,533.294495 433.195312,536.273499 429.245514,537.686279 
M269.187073,676.982666 
	C271.596954,672.640808 267.814514,671.179626 265.331726,669.863647 
	C259.487457,666.766052 253.365936,664.187134 247.328568,661.460449 
	C244.893982,660.360840 242.847183,660.664124 241.581787,663.730835 
	C245.320297,665.570374 248.421631,667.619507 247.284988,672.746582 
	C246.311417,677.138062 244.309586,680.183472 238.983688,681.342712 
	C248.391861,683.694763 256.796692,682.262939 265.190796,681.518127 
	C267.426331,681.319824 269.577545,680.684814 269.187073,676.982666 
M207.674408,675.803955 
	C212.614716,678.961548 217.768768,681.387390 225.243103,680.634521 
	C220.977814,679.442810 218.390228,677.707886 215.218262,677.097046 
	C210.914627,676.268372 207.746338,671.998962 207.958496,668.136414 
	C208.198044,663.775269 211.390869,660.295715 215.769730,659.237000 
	C218.073730,658.679932 220.271164,657.677917 222.429367,655.667297 
	C211.963882,651.978699 202.345688,652.838623 192.945343,657.153015 
	C190.250381,658.389954 190.538483,660.306519 192.103363,662.435791 
	C196.115417,667.894897 201.157379,672.150269 207.674408,675.803955 
M75.547440,356.990356 
	C72.056976,356.818146 68.907211,354.604431 64.983398,356.759094 
	C60.945988,358.976166 63.687187,363.508545 60.458015,366.125305 
	C58.041843,368.083282 60.348850,371.748962 61.471748,374.244293 
	C64.118591,380.126160 68.331024,385.389435 74.004204,388.015198 
	C80.133163,390.851929 87.149170,393.507812 93.857620,388.431854 
	C97.125046,385.959564 97.628479,383.565247 93.660027,380.988373 
	C91.008698,383.553619 89.548462,388.307709 85.040359,387.518951 
	C80.235901,386.678345 75.170731,386.047821 71.412308,382.068481 
	C68.103798,378.565521 66.261856,370.195862 68.270645,365.914734 
	C70.122581,361.967926 74.259087,360.469818 78.586319,361.307831 
	C82.822716,362.128265 84.984909,365.632935 88.439224,367.471313 
	C85.273849,363.003143 82.150085,358.526520 75.547440,356.990356 
M375.157410,622.130188 
	C375.850342,614.313904 374.902222,611.735229 370.350769,611.527527 
	C359.395752,611.027344 348.812012,612.519531 339.690674,619.368713 
	C338.396027,620.340942 336.349609,621.633118 337.006500,623.185181 
	C338.141327,625.866333 336.764313,627.816956 335.820190,629.730225 
	C334.150543,633.113770 335.837402,634.771057 338.444977,636.008179 
	C345.271912,639.247131 352.203522,640.844116 359.424500,636.996887 
	C361.757660,635.753845 364.197754,634.639526 366.701538,633.803406 
	C372.013000,632.029480 375.155151,628.751892 375.157410,622.130188 
M454.540771,479.199890 
	C465.213226,477.832764 471.900421,471.826599 474.467072,461.537781 
	C475.461029,457.553436 472.800934,455.171143 470.558289,453.013550 
	C468.706726,451.232178 466.720093,453.076172 465.088989,454.490875 
	C469.256226,459.786133 470.279449,463.588226 467.832031,467.208588 
	C465.415649,470.783112 462.202728,475.098083 457.619598,473.887115 
	C451.886047,472.372131 448.817261,467.600494 450.368042,459.914490 
	C444.152924,468.882141 445.629639,475.064331 454.540771,479.199890 
M86.308197,345.338409 
	C88.442421,347.960480 88.766029,351.298370 89.541870,354.427521 
	C92.064827,354.642731 93.336090,353.017029 95.122040,352.135315 
	C83.570518,342.852692 82.730057,329.199249 97.906151,324.083466 
	C97.066353,323.517365 96.422768,323.075775 95.771431,322.645905 
	C93.289917,321.008026 90.560745,322.411102 87.977478,322.015778 
	C81.464798,321.019073 78.121277,324.466644 78.934547,330.994843 
	C79.616104,336.465698 81.339706,341.280182 86.308197,345.338409 
M542.266479,344.868500 
	C547.528076,341.188232 553.395508,338.197937 555.854065,331.563019 
	C557.039001,328.365326 556.032288,326.029175 553.791565,323.980560 
	C551.490295,321.876495 548.900696,321.587646 546.131409,322.919098 
	C546.191956,325.108429 548.078613,325.348053 548.967529,326.460449 
	C553.195862,331.751617 551.933533,337.301056 545.844177,339.700256 
	C539.468811,342.212158 535.985474,340.526794 532.807190,333.270355 
	C532.102722,331.662018 531.467468,329.962067 529.342468,330.522888 
	C527.315063,331.058014 526.450806,332.876312 526.587524,334.785004 
	C526.788086,337.583710 528.158081,340.040314 530.744812,341.199615 
	C533.263489,342.328247 534.452637,344.111725 534.540527,346.587067 
	C537.355042,347.179565 539.488892,346.268585 542.266479,344.868500 
M92.758362,414.283325 
	C94.531395,414.108154 96.351135,415.192535 98.081680,414.120544 
	C99.373505,408.425232 98.586937,406.126312 94.968208,404.427734 
	C90.749908,402.447784 90.769035,406.900177 88.630402,408.656189 
	C84.922485,405.254028 83.818260,407.945160 82.745293,411.182739 
	C79.375404,421.351196 80.542068,427.786682 87.643990,436.371887 
	C87.038055,432.999115 86.436470,429.928131 85.942886,426.839844 
	C85.151733,421.889648 87.553658,417.014740 92.758362,414.283325 
M110.444885,456.408295 
	C116.712090,454.062317 119.650223,450.353241 118.169807,445.595734 
	C115.504402,437.030151 112.499191,428.555450 108.411293,420.534851 
	C107.676369,419.092926 107.053894,417.043030 104.333237,417.469940 
	C108.629478,423.550659 111.818283,429.848297 114.068802,436.636749 
	C115.905800,442.177826 113.217583,447.364838 107.530182,447.281647 
	C102.658272,447.210358 97.286880,449.225708 92.674995,445.397430 
	C97.380112,449.451141 102.298813,453.010223 107.201477,456.591217 
	C108.082970,457.235107 108.935730,457.553986 110.444885,456.408295 
M473.355621,489.048279 
	C473.753754,491.752014 474.962982,494.010040 476.707245,496.135559 
	C478.617615,498.463623 480.616425,500.287720 483.851593,499.583466 
	C487.332916,498.825531 489.535492,496.678833 490.722107,492.969971 
	C485.762238,492.406647 481.439331,490.788055 479.584198,486.293762 
	C477.826111,482.034485 478.754272,477.366455 479.870911,471.776733 
	C475.955444,477.466095 473.042694,482.231781 473.355621,489.048279 
M459.299500,596.905884 
	C459.938477,595.976135 461.055603,595.024414 460.050385,593.859680 
	C459.090271,592.747192 457.940430,593.537537 456.877747,594.017517 
	C453.976532,595.327881 451.167023,596.591064 448.058655,594.194275 
	C445.661743,592.345947 443.492340,590.643860 442.456451,587.508728 
	C441.416504,584.361267 442.810547,581.995117 444.074341,579.412048 
	C441.007874,581.722961 439.558380,584.874756 438.624512,588.249390 
	C436.498077,595.933533 440.652100,601.373962 448.587555,601.755798 
	C452.794464,601.958191 455.873230,599.943848 459.299500,596.905884 
M576.103760,287.996216 
	C573.887939,294.342957 574.747437,295.906616 581.270386,297.042389 
	C588.805847,298.354431 594.886536,295.329620 600.258362,290.417084 
	C601.972168,288.849854 601.934143,286.954590 600.967590,284.952972 
	C599.888733,282.718689 598.733765,280.658722 595.906128,280.838257 
	C595.253296,282.050598 595.475464,282.837219 595.906006,283.567841 
	C598.151001,287.377777 595.612305,289.774933 593.356934,292.251038 
	C591.123962,294.702545 588.560181,294.019714 586.050049,292.880981 
	C583.625305,291.780975 581.379395,290.389496 579.540527,288.386230 
	C578.737915,287.511871 577.995728,285.889191 576.103760,287.996216 
M479.526947,432.553772 
	C480.624939,432.386475 481.341553,431.726349 481.677826,430.714783 
	C483.384186,425.581787 479.634399,416.130493 474.451508,413.096893 
	C473.746521,416.599457 472.766144,419.957184 473.139923,423.442871 
	C473.554565,427.309662 474.432251,431.055511 479.526947,432.553772 
M453.783386,555.233826 
	C461.062286,550.440918 461.664551,545.396118 455.276123,540.699890 
	C453.790222,542.832764 451.761536,544.782410 450.954529,547.148682 
	C449.961853,550.059448 447.807953,553.914307 453.783386,555.233826 
M113.394661,342.156403 
	C111.676193,339.321350 111.528976,335.674896 109.046501,332.976807 
	C107.759659,334.733002 108.019707,336.329926 108.928604,337.448944 
	C112.676147,342.062866 110.824646,345.877899 107.712326,349.822632 
	C106.426506,351.452332 104.862984,352.783417 103.008141,354.321716 
	C113.180649,355.681305 116.401207,352.000000 113.394661,342.156403 
M471.912506,573.397888 
	C473.041748,570.464478 475.565430,567.641174 471.791443,564.619446 
	C468.368744,561.878967 463.748138,561.572021 458.838715,564.497986 
	C463.128204,567.643921 467.920105,569.855530 471.912506,573.397888 
M521.637756,385.049805 
	C518.777893,380.988983 514.548645,381.641724 511.022858,386.714905 
	C511.910187,389.004303 514.637451,389.493378 515.803406,391.538605 
	C516.462158,392.694183 517.230042,393.897339 518.847961,393.548309 
	C520.549194,393.181335 521.176819,391.737427 521.443298,390.269348 
	C521.705383,388.825500 521.623352,387.319244 521.637756,385.049805 
M491.019714,458.954926 
	C488.442505,459.666107 488.112366,461.734344 487.903107,464.018311 
	C490.487915,465.148315 493.005524,466.272491 495.542847,467.350281 
	C497.385284,468.132935 499.148682,468.242035 500.141205,466.093719 
	C501.203003,463.795288 500.709991,461.786285 498.283325,460.800964 
	C496.170410,459.943115 493.898041,459.477966 491.019714,458.954926 
M521.299194,322.183350 
	C518.664429,321.376465 518.876038,317.989502 516.465515,316.607910 
	C513.092651,319.576782 513.207153,323.318878 515.461670,325.965942 
	C518.127502,329.095856 521.927124,328.243591 525.191040,326.216431 
	C525.089111,323.760834 523.284607,323.344482 521.299194,322.183350 
M479.508392,392.036682 
	C478.479065,391.051270 478.416718,389.163330 476.610016,388.885742 
	C474.868439,392.744324 476.237976,397.769073 479.915253,399.953857 
	C482.235870,401.332672 484.596619,401.326630 486.255554,398.220764 
	C484.105011,396.272888 482.045227,394.407227 479.508392,392.036682 
M500.644836,418.237244 
	C503.830627,418.170349 506.356598,417.214905 507.386047,412.645538 
	C502.793060,413.151123 498.697540,412.647247 494.651703,410.652771 
	C493.431854,415.824371 496.123718,417.391388 500.644836,418.237244 
M626.381165,265.494720 
	C625.662415,273.023499 627.528198,275.423737 633.391541,274.023346 
	C632.844788,270.751740 631.153625,267.906128 629.826477,264.957458 
	C629.021667,263.169281 627.793091,263.741180 626.381165,265.494720 
M528.740051,305.332245 
	C528.525452,311.515381 534.630920,309.388062 537.172241,313.147308 
	C537.662659,306.468445 533.916565,303.242950 528.740051,305.332245 
M487.586731,377.665619 
	C490.167297,377.568604 492.743317,376.980133 495.618195,378.135315 
	C491.980957,371.284058 488.816559,371.003937 483.917236,376.594330 
	C484.472626,378.062592 485.728271,377.739166 487.586731,377.665619 
M570.370911,277.544250 
	C572.082153,277.509613 573.372620,276.759949 571.696289,275.293121 
	C570.176208,273.962952 569.114197,271.740631 566.449951,271.608734 
	C563.662598,275.751434 566.551453,276.651001 570.370911,277.544250 
M650.065369,271.049072 
	C650.418640,272.368347 651.104065,274.243500 652.332031,272.127533 
	C653.406860,270.275360 653.847778,267.692383 652.614380,265.467529 
	C652.116516,264.569336 650.999146,263.950226 650.096008,264.772186 
	C648.218018,266.481323 649.702026,268.467743 650.065369,271.049072 
z"></path>


<path fill="currentColor" opacity="1.000000" stroke="none" d="
M383.010406,657.362793 
	C386.265320,666.727112 384.400604,670.806824 375.986267,674.975525 
	C368.795319,678.538086 361.600006,681.851929 353.411041,682.256042 
	C350.189972,682.414978 346.984375,682.383789 344.410492,680.180664 
	C341.557617,677.738586 341.046600,674.383057 342.193573,671.043396 
	C346.814514,657.588684 369.840271,649.157654 382.039490,656.347839 
	C382.318329,656.512268 382.525116,656.798828 383.010406,657.362793 
z"></path>
<path fill="currentColor" opacity="1.000000" stroke="none" d="
M121.703156,560.193298 
	C115.612534,551.377747 113.424316,541.902832 114.657120,531.692322 
	C115.197250,527.218750 119.125275,526.189209 122.634003,525.212036 
	C125.771103,524.338318 127.951080,526.165710 129.802490,528.564514 
	C131.931656,531.323120 134.172134,534.000671 136.453918,536.635803 
	C142.484528,543.600220 143.365891,552.379883 144.162720,560.844116 
	C144.738876,566.964233 134.527740,570.464294 128.388687,566.671387 
	C125.797615,565.070557 123.887535,562.749146 121.703156,560.193298 
z"></path>
<path fill="currentColor" opacity="1.000000" stroke="none" d="
M232.920380,615.546875 
	C237.571884,617.269348 242.039291,618.166443 246.592407,618.982361 
	C253.768936,620.268494 256.527435,626.038757 258.655304,632.210876 
	C260.340088,637.097717 257.841187,640.377014 254.756271,643.691956 
	C253.145264,645.423096 251.588150,645.824402 249.479706,645.242310 
	C240.707779,642.820496 233.712540,637.401855 227.607422,631.102295 
	C222.489426,625.821289 225.507477,617.442932 232.920380,615.546875 
z"></path>
<path fill="currentColor" opacity="1.000000" stroke="none" d="
M440.227509,541.800781 
	C445.455750,549.955933 443.116211,557.112854 434.496552,560.274536 
	C431.205261,561.481812 428.177124,563.873657 424.341309,560.764771 
	C419.190765,556.590393 418.459656,552.213257 422.894775,547.259277 
	C423.890289,546.147278 425.121307,545.237671 426.061249,544.085876 
	C429.986481,539.275696 434.516785,538.053467 440.227509,541.800781 
z"></path>
<path fill="currentColor" opacity="1.000000" stroke="none" d="
M352.422180,615.104614 
	C357.195526,613.332031 361.601868,613.678833 366.032440,614.790833 
	C369.346466,615.622681 371.671417,617.555481 372.814636,620.792969 
	C373.976959,624.084595 371.719299,625.949463 369.879517,628.152588 
	C364.983978,634.015076 359.439087,636.922485 351.502991,634.453796 
	C346.627441,632.937195 343.494720,630.493530 343.020386,625.374329 
	C342.565125,620.461853 345.323486,617.665100 349.724060,616.160034 
	C350.509064,615.891479 351.262207,615.529785 352.422180,615.104614 
z"></path>
</svg>
